<svg width="23" height="23" viewBox="0 0 23 23" fill="none" xmlns="http://www.w3.org/2000/svg">
<path d="M19.8589 12.6025C19.9039 12.2425 19.9377 11.8825 19.9377 11.5C19.9377 11.1175 19.9039 10.7575 19.8589 10.3975L22.2327 8.54125C22.4464 8.3725 22.5027 8.06875 22.3677 7.82125L20.1177 3.92875C19.9827 3.68125 19.6789 3.59125 19.4314 3.68125L16.6302 4.80625C16.0452 4.35625 15.4152 3.985 14.7289 3.70375L14.3014 0.7225C14.2677 0.4525 14.0314 0.25 13.7502 0.25H9.25019C8.96894 0.25 8.73269 0.4525 8.69894 0.7225L8.27144 3.70375C7.58519 3.985 6.95519 4.3675 6.37019 4.80625L3.56894 3.68125C3.31019 3.58 3.01769 3.68125 2.88269 3.92875L0.632686 7.82125C0.486436 8.06875 0.553936 8.3725 0.767686 8.54125L3.14144 10.3975C3.09644 10.7575 3.06269 11.1287 3.06269 11.5C3.06269 11.8713 3.09644 12.2425 3.14144 12.6025L0.767686 14.4587C0.553936 14.6275 0.497686 14.9313 0.632686 15.1788L2.88269 19.0712C3.01769 19.3188 3.32144 19.4088 3.56894 19.3188L6.37019 18.1938C6.95519 18.6438 7.58519 19.015 8.27144 19.2962L8.69894 22.2775C8.73269 22.5475 8.96894 22.75 9.25019 22.75H13.7502C14.0314 22.75 14.2677 22.5475 14.3014 22.2775L14.7289 19.2962C15.4152 19.015 16.0452 18.6325 16.6302 18.1938L19.4314 19.3188C19.6902 19.42 19.9827 19.3188 20.1177 19.0712L22.3677 15.1788C22.5027 14.9313 22.4464 14.6275 22.2327 14.4587L19.8589 12.6025ZM11.5002 15.4375C9.32894 15.4375 7.56269 13.6713 7.56269 11.5C7.56269 9.32875 9.32894 7.5625 11.5002 7.5625C13.6714 7.5625 15.4377 9.32875 15.4377 11.5C15.4377 13.6713 13.6714 15.4375 11.5002 15.4375Z" fill="#2B2A29"/>
</svg>
